<svg height="512pt" viewBox="-42 0 512 512" width="512pt" xmlns="http://www.w3.org/2000/svg"><path d="m359.273438 158.308594-39.425782-33.496094c-14.566406-12.371094-34.261718-16.832031-52.734375-11.9375l-58.820312 15.582031c-18.472657 4.894531-33.378907 18.519531-39.910157 36.476563l-17.675781 48.621094c-5.496093 15.121093-6.234375 31.5625-2.113281 47.113281l41.933594 158.304687c6.285156 23.726563 30.613281 37.867188 54.339844 31.582032l149.921874-39.714844c23.726563-6.285156 37.867188-30.617188 31.582032-54.34375l-41.933594-158.300782c-4.121094-15.550781-12.902344-29.472656-25.164062-39.886718zm0 0" fill="#efd4bf"/><path d="m244.867188 450.554688 134.886718-35.734376c-14.40625-33.691406-20.1875-80.945312-26.332031-152.585937-10.164063-118.402344-121.617187-140.007813-121.617187-140.007813l-23.511719 6.230469c-18.472657 4.890625-33.378907 18.515625-39.910157 36.476563l-17.675781 48.621094c-5.496093 15.121093-6.234375 31.5625-2.113281 47.113281l41.933594 158.300781c6.285156 23.730469 30.613281 37.871094 54.339844 31.585938zm0 0" fill="#e0c1ad"/><path d="m295.066406 186.976562-37.914062-54.519531c-14.003906-20.136719-36.980469-32.144531-61.507813-32.144531h-78.109375c-24.53125 0-47.503906 12.007812-61.511718 32.144531l-37.914063 54.519531c-11.789063 16.957032-18.109375 37.113282-18.109375 57.765626v210.210937c0 31.503906 25.542969 57.046875 57.050781 57.046875h199.078125c31.507813 0 57.046875-25.542969 57.046875-57.046875v-210.210937c0-20.652344-6.320312-40.808594-18.109375-57.765626zm-108.742187 25.6875h-59.46875c-18.511719 0-33.519531-15.007812-33.519531-33.519531s15.007812-33.519531 33.519531-33.519531h59.46875c18.511719 0 33.519531 15.007812 33.519531 33.519531s-15.007812 33.519531-33.519531 33.519531zm0 0" fill="#fce6d4"/><path d="m98.492188 333.519531c2.574218-33.683593 18.265624-64.875 43.160156-87.714843 20.917968-19.191407 23.453125-33.140626 23.453125-33.140626h-38.25c-18.511719 0-33.519531-15.007812-33.519531-33.519531s15.007812-33.519531 33.519531-33.519531h16.199219l-14.902344-45.3125h-10.621094c-24.527344 0-47.503906 12.003906-61.507812 32.144531l-37.914063 54.519531c-11.789063 16.957032-18.109375 37.113282-18.109375 57.765626v210.210937c0 31.503906 25.542969 57.046875 57.050781 57.046875h62.414063c-24.066406-58.050781-24.777344-128.691406-20.972656-178.480469zm0 0" fill="#efd4bf"/><path d="m196.285156 211.160156c-10.792968-8.707031-27.566406-25.21875-34.175781-35.617187-13.394531-21.074219-22.050781-47.695313-22.050781-67.816407 0-36.054687 29.335937-65.386718 65.390625-65.386718 36.054687 0 71.722656 28.53125 65.253906 69.703125 14.507813-2.878907 29.503906-.132813 41.988281 7.566406.316406-3.878906 6.707032-119.609375-107.242187-119.609375-59.402344 0-107.730469 48.328125-107.730469 107.726562 0 25.269532 10.078125 74.554688 34 104.9375h54.605469c3.46875 0 6.8125-.527343 9.960937-1.503906zm0 0" fill="#acabb1"/><path d="m156.589844 341.519531c-15.988282 0-28.949219-12.960937-28.949219-28.949219v-21.046874c0-4.363282 3.539063-7.902344 7.902344-7.902344h42.09375c4.363281 0 7.902343 3.539062 7.902343 7.902344v21.046874c-.003906 15.988282-12.960937 28.949219-28.949218 28.949219zm0 0" fill="#57565c"/><path d="m90.632812 312.570312c0-13.582031-13.824218-24.589843-30.875-24.589843-17.054687 0-30.878906 11.007812-30.878906 24.589843 0 13.578126 13.824219 24.589844 30.878906 24.589844 17.050782 0 30.875-11.011718 30.875-24.589844zm0 0" fill="#ffa6bb"/><path d="m284.300781 312.570312c0-13.582031-13.824219-24.589843-30.878906-24.589843s-30.878906 11.007812-30.878906 24.589843c0 13.578126 13.824219 24.589844 30.878906 24.589844s30.878906-11.011718 30.878906-24.589844zm0 0" fill="#ffa6bb"/><path d="m239.679688 299.070312c-4.269532 0-7.726563-3.457031-7.726563-7.726562v-12.824219c0-4.269531 3.457031-7.726562 7.726563-7.726562 4.265624 0 7.726562 3.457031 7.726562 7.726562v12.824219c0 4.269531-3.457031 7.726562-7.726562 7.726562zm0 0" fill="#57565c"/><path d="m73.5 299.070312c-4.269531 0-7.726562-3.457031-7.726562-7.726562v-12.824219c0-4.269531 3.457031-7.726562 7.726562-7.726562 4.265625 0 7.726562 3.457031 7.726562 7.726562v12.824219c0 4.269531-3.460937 7.726562-7.726562 7.726562zm0 0" fill="#57565c"/><g fill="#dd9f80"><path d="m123.671875 464.730469c-3.015625-3.015625-3.015625-7.910157 0-10.925781l54.90625-54.902344c3.015625-3.019532 7.910156-3.019532 10.925781 0 3.019532 3.015625 3.019532 7.90625 0 10.925781l-54.902344 54.902344c-3.019531 3.019531-7.910156 3.019531-10.929687 0zm0 0"/><path d="m136.957031 404.457031c0 4.265625-3.460937 7.726563-7.726562 7.726563-4.269531 0-7.726563-3.460938-7.726563-7.726563 0-4.269531 3.457032-7.726562 7.726563-7.726562 4.265625 0 7.726562 3.457031 7.726562 7.726562zm0 0"/><path d="m191.675781 459.175781c0 4.269531-3.460937 7.726563-7.726562 7.726563s-7.726563-3.457032-7.726563-7.726563c0-4.265625 3.460938-7.726562 7.726563-7.726562s7.726562 3.460937 7.726562 7.726562zm0 0"/><path d="m81.523438 512c4.707031-8.714844 7.382812-18.691406 7.382812-29.292969 0-34.101562-27.640625-61.746093-61.742188-61.746093-9.75 0-18.964843 2.269531-27.164062 6.292968v27.695313c0 31.507812 25.542969 57.050781 57.050781 57.050781zm0 0"/></g><path d="m231.652344 512c-4.707032-8.714844-7.382813-18.691406-7.382813-29.292969 0-34.101562 27.644531-61.746093 61.746094-61.746093 9.75 0 18.964844 2.269531 27.160156 6.292968v27.695313c0 31.507812-25.539062 57.050781-57.046875 57.050781zm0 0" fill="#eab9a4"/><path d="m270.703125 112.042969c14.507813-2.878907 29.503906-.132813 41.988281 7.566406.144532-1.757813 1.53125-26.453125-7.589844-52.976563-12.574218 7.5625-26.710937 11.078126-38.621093 12.644532 4.367187 9.546875 6.132812 20.601562 4.222656 32.765625zm0 0" fill="#898890"/></svg>