<?xml version="1.0" encoding="iso-8859-1"?>
<!-- Generator: Adobe Illustrator 19.0.0, SVG Export Plug-In . SVG Version: 6.00 Build 0)  -->
<svg version="1.1" id="Capa_1" xmlns="http://www.w3.org/2000/svg" xmlns:xlink="http://www.w3.org/1999/xlink" x="0px" y="0px"
	 viewBox="0 0 512 512" style="enable-background:new 0 0 512 512;" xml:space="preserve">
<circle style="fill:#D3D3D8;" cx="256" cy="256" r="256"/>
<path style="fill:#9E9EA2;" d="M512,256c0-7.313-0.324-14.548-0.925-21.706L394.89,118.11L118.11,394.89l116.185,116.185
	C241.452,511.676,248.688,512,256,512C397.385,512,512,397.385,512,256z"/>
<path style="fill:#FF3636;" d="M256,60C148.277,60,60,148.277,60,256s88.277,196,196,196s196-88.277,196-196S363.723,60,256,60z"/>
<path style="fill:#F40000;" d="M452,256c0,107.723-88.277,196-196,196V60C363.723,60,452,148.277,452,256z"/>
<path style="fill:#E7E7E7;" d="M233.031,118.188V256h45.938V118.188H233.031z M353.387,158.613l-32.385,32.385
	c35.831,35.831,35.831,94.171,0,130.003c-16.538,16.538-40.195,25.955-65.002,25.955s-48.464-9.417-65.002-25.955
	c-35.831-35.831-35.831-94.171,0-130.003l-32.385-32.385c-53.747,53.746-53.747,141.027,0,194.775
	c25.955,25.955,60.638,40.425,97.387,40.425s71.432-14.47,97.387-40.425C407.135,299.64,407.135,212.359,353.387,158.613z"/>
<g>
	<rect x="256" y="118.19" style="fill:#D3D3D8;" width="22.969" height="137.81"/>
	<path style="fill:#D3D3D8;" d="M353.387,353.387c-25.955,25.955-60.638,40.425-97.387,40.425v-46.857
		c24.807,0,48.464-9.417,65.002-25.955c35.831-35.831,35.831-94.171,0-130.003l32.385-32.385
		C407.135,212.359,407.135,299.64,353.387,353.387z"/>
</g>
<g>
</g>
<g>
</g>
<g>
</g>
<g>
</g>
<g>
</g>
<g>
</g>
<g>
</g>
<g>
</g>
<g>
</g>
<g>
</g>
<g>
</g>
<g>
</g>
<g>
</g>
<g>
</g>
<g>
</g>
</svg>
