<?xml version="1.0" encoding="iso-8859-1"?>
<!-- Generator: Adobe Illustrator 19.0.0, SVG Export Plug-In . SVG Version: 6.00 Build 0)  -->
<svg version="1.1" id="Capa_1" xmlns="http://www.w3.org/2000/svg" xmlns:xlink="http://www.w3.org/1999/xlink" x="0px" y="0px"
	 viewBox="0 0 512.007 512.007" style="enable-background:new 0 0 512.007 512.007;" xml:space="preserve">
<circle style="fill:#488E53;" cx="256.003" cy="256.003" r="256.003"/>
<path style="fill:#3A7545;" d="M511.891,248.709l-86.884-86.884h-68.118l0,0c-11.697,0-256.158,0-267.556,0v188.349l161.763,161.763
	c1.633,0.031,3.265,0.062,4.905,0.062c141.385,0,256-114.615,256-256C512,253.56,511.959,251.131,511.891,248.709z"/>
<rect x="89.331" y="161.822" style="fill:#FFB33B;" width="335.672" height="188.352"/>
<rect x="256.496" y="161.822" style="fill:#DF871E;" width="168.507" height="188.352"/>
<g>
	<rect x="343.747" y="161.822" style="fill:#3A7545;" width="13.145" height="30.093"/>
	<rect x="343.747" y="214.488" style="fill:#3A7545;" width="13.145" height="30.093"/>
	<rect x="343.747" y="267.154" style="fill:#3A7545;" width="13.145" height="30.093"/>
	<rect x="343.747" y="319.819" style="fill:#3A7545;" width="13.145" height="30.093"/>
</g>
<path style="fill:#FFFFFF;" d="M147.136,246.997c-13.699,0-23.957-10.169-23.957-22.069c0-12.204,10.651-21.924,23.957-21.924
	c12.872,0,23.957,9.361,23.957,21.924C171.093,237,160.593,246.997,147.136,246.997z M131.309,300.72l78.695-97.425l8.857,7.841
	l-78.695,97.425L131.309,300.72z M147.136,237.27c5.059,0,10.309-5.085,10.309-12.341c0-6.362-4.293-12.196-10.309-12.196
	c-5.048,0-10.308,5.124-10.308,12.196C136.826,231.414,141.209,237.27,147.136,237.27z M203.181,308.995
	c-13.128,0-23.957-9.527-23.957-21.924c0-11.823,10.194-22.07,23.957-22.07c12.649,0,23.957,9.029,23.957,22.07
	C227.138,300.434,215.409,308.995,203.181,308.995z M203.181,299.268c5.029,0,10.308-5.079,10.308-12.196
	c0-6.128-4.236-12.341-10.308-12.341c-5.043,0-10.308,5.069-10.308,12.341C192.873,293.435,197.161,299.268,203.181,299.268z"/>
<g>
</g>
<g>
</g>
<g>
</g>
<g>
</g>
<g>
</g>
<g>
</g>
<g>
</g>
<g>
</g>
<g>
</g>
<g>
</g>
<g>
</g>
<g>
</g>
<g>
</g>
<g>
</g>
<g>
</g>
</svg>
